<svg xmlns="http://www.w3.org/2000/svg" xmlns:xlink="http://www.w3.org/1999/xlink" xmlns:lucid="lucid" width="928" height="832"><g transform="translate(0 0)" lucid:page-tab-id="0_0"><path d="M0 0h928v832H0z" fill="#fff"/><path d="M82 60h800" stroke="#000" stroke-width="2" fill="none"/><path d="M82 21h148v40H82z" stroke="#000" stroke-opacity="0" stroke-width="2" fill="#fff" fill-opacity="0"/><use xlink:href="#a" transform="matrix(1,0,0,1,87,26) translate(0 18.6)"/><use xlink:href="#b" transform="matrix(1,0,0,1,87,26) translate(59.95 18.6)"/><use xlink:href="#c" transform="matrix(1,0,0,1,87,26) translate(97.45 18.6)"/><path d="M82 615h148v40H82z" stroke="#000" stroke-opacity="0" stroke-width="2" fill="#fff" fill-opacity="0"/><use xlink:href="#a" transform="matrix(1,0,0,1,87,620) translate(0 18.6)"/><use xlink:href="#d" transform="matrix(1,0,0,1,87,620) translate(59.95 18.6)"/><use xlink:href="#c" transform="matrix(1,0,0,1,87,620) translate(86.95 18.6)"/><path d="M282 140v120h-80V140z" fill="none"/><path d="M242 140v36m40 0h-80l40 36 40-36zm0 36h-80m40 0v48z" stroke="#000" stroke-width="2" fill="#fff"/><path d="M422 120v160H302V120z" fill="none"/><path d="M362 120v32c-26.5 0-48 21.5-48 48s21.5 48 48 48 48-21.5 48-48-21.5-48-48-48m0 96v32z" stroke="#000" stroke-width="2" fill="#fff"/><path d="M344 184h36l-36 16 36 16h-36" stroke="#000" stroke-width="2" fill="none"/><path d="M917 279v120H797V279z" fill="none"/><path d="M857 279v54m36 0h-72m36 6v60m-36-48c0-6.63 16.12-12 36-12s36 5.37 36 12" stroke="#000" stroke-width="2" fill="none"/><path d="M881 315v12m-7.2-6h14.4" stroke="#000" stroke-width="2" fill="#fff"/><path d="M602 140v120h-80V140z" fill="none"/><path d="M562 140v36m40 0h-80l40 36 40-36zm0 36h-80m40 0v48z" stroke="#000" stroke-width="2" fill="#fff"/><path d="M748 120v160H628V120z" fill="none"/><path d="M688 120v32c-26.5 0-48 21.5-48 48s21.5 48 48 48 48-21.5 48-48-21.5-48-48-48m0 96v32z" stroke="#000" stroke-width="2" fill="#fff"/><path d="M670 184h36l-36 16 36 16h-36" stroke="#000" stroke-width="2" fill="none"/><path d="M462 386h120v80H462z" fill="none"/><path d="M462 426h27l6-12 9 24 9-24 9 24 9-24 9 24 9-24 9 24 6-12h18" stroke="#000" stroke-width="2" fill="none"/><use xlink:href="#e" transform="matrix(1,0,0,1,462,454) translate(48.525 18.6)"/><path d="M20 660h240v160H20z" stroke="#000" stroke-opacity="0" stroke-width="2" fill="#fff" fill-opacity="0"/><use xlink:href="#f" transform="matrix(1,0,0,1,25,665) translate(0 33.239999999999995)"/><use xlink:href="#g" transform="matrix(1,0,0,1,25,665) translate(36.01 33.239999999999995)"/><use xlink:href="#g" transform="matrix(1,0,0,1,25,665) translate(72.01 33.239999999999995)"/><use xlink:href="#h" transform="matrix(1,0,0,1,25,665) translate(108.01 33.239999999999995)"/><use xlink:href="#i" transform="matrix(1,0,0,1,25,665) translate(0 63.48)"/><use xlink:href="#j" transform="matrix(1,0,0,1,25,665) translate(32.95 63.48)"/><use xlink:href="#k" transform="matrix(1,0,0,1,25,665) translate(72.01 63.48)"/><use xlink:href="#l" transform="matrix(1,0,0,1,25,665) translate(107.01 63.48)"/><use xlink:href="#m" transform="matrix(1,0,0,1,25,665) translate(0 93.72)"/><use xlink:href="#n" transform="matrix(1,0,0,1,25,665) translate(34 93.72)"/><use xlink:href="#g" transform="matrix(1,0,0,1,25,665) translate(72.01 93.72)"/><use xlink:href="#o" transform="matrix(1,0,0,1,25,665) translate(108.01 93.72)"/><use xlink:href="#p" transform="matrix(1,0,0,1,25,665) translate(0 123.96000000000001)"/><use xlink:href="#q" transform="matrix(1,0,0,1,25,665) translate(32.95 123.96000000000001)"/><use xlink:href="#g" transform="matrix(1,0,0,1,25,665) translate(72.01 123.96000000000001)"/><use xlink:href="#r" transform="matrix(1,0,0,1,25,665) translate(108.01 123.96000000000001)"/><path d="M242 140V60" stroke="#000" stroke-width="2" fill="none"/><path/><path d="M362 120V60" stroke="#000" stroke-width="2" fill="none"/><path/><path d="M562 140V60" stroke="#000" stroke-width="2" fill="none"/><path/><path d="M688 120V60" stroke="#000" stroke-width="2" fill="none"/><path/><path d="M240 313h160v220H240z" fill="none"/><path d="M330.4 432.02l32 35.64V533m-32-119.02l32-35.64V313m-32 110H240m158.88 0c0 31.46-22.72 56.76-50.88 56.76-28.16 0-50.88-25.3-50.88-56.76 0-31.46 22.72-56.76 50.88-56.76 28.16 0 50.88 25.3 50.88 56.76zm-68.48-35.86v71.72" stroke="#000" stroke-width="2" fill="none"/><path d="M360.8 465.9l-16-5.28 11.2-12.54 4.8 17.82z" stroke="#000" stroke-width="2"/><path d="M294 396h40v20h-40z" stroke="#000" stroke-opacity="0" stroke-width="2" fill="#fff" fill-opacity="0"/><use xlink:href="#s" transform="matrix(1,0,0,1,299,401) translate(9 14.4)"/><path d="M349 383h40v20h-40z" stroke="#000" stroke-opacity="0" stroke-width="2" fill="#fff" fill-opacity="0"/><use xlink:href="#t" transform="matrix(1,0,0,1,354,388) translate(8.524999999999999 14.4)"/><path d="M348 436h40v20h-40z" stroke="#000" stroke-opacity="0" stroke-width="2" fill="#fff" fill-opacity="0"/><use xlink:href="#u" transform="matrix(1,0,0,1,353,441) translate(9 14.4)"/><path d="M362 280v16.5h.4V313" stroke="#000" stroke-width="2" fill="none"/><path/><path/><path d="M242 260v60h120v-40" stroke="#000" stroke-width="2" fill="none"/><path/><path/><path d="M565 316h160v220H565z" fill="none"/><path d="M655.4 435.02l32 35.64V536m-32-119.02l32-35.64V316m-32 110H565m158.88 0c0 31.46-22.72 56.76-50.88 56.76-28.16 0-50.88-25.3-50.88-56.76 0-31.46 22.72-56.76 50.88-56.76 28.16 0 50.88 25.3 50.88 56.76zm-68.48-35.86v71.72" stroke="#000" stroke-width="2" fill="none"/><path d="M685.8 468.9l-16-5.28 11.2-12.54 4.8 17.82z" stroke="#000" stroke-width="2"/><path d="M619 399h40v20h-40z" stroke="#000" stroke-opacity="0" stroke-width="2" fill="#fff" fill-opacity="0"/><use xlink:href="#s" transform="matrix(1,0,0,1,624,404) translate(9 14.4)"/><path d="M674 386h40v20h-40z" stroke="#000" stroke-opacity="0" stroke-width="2" fill="#fff" fill-opacity="0"/><use xlink:href="#t" transform="matrix(1,0,0,1,679,391) translate(8.524999999999999 14.4)"/><path d="M673 439h40v20h-40z" stroke="#000" stroke-opacity="0" stroke-width="2" fill="#fff" fill-opacity="0"/><use xlink:href="#u" transform="matrix(1,0,0,1,678,444) translate(9 14.4)"/><path d="M688 280v36" stroke="#000" stroke-width="2" fill="none"/><path/><path/><path d="M562 260v60h126v-40" stroke="#000" stroke-width="2" fill="none"/><path/><path/><path d="M82 603h800M687.4 536v67" stroke="#000" stroke-width="2" fill="none"/><path/><path d="M362.4 533v70" stroke="#000" stroke-width="2" fill="none"/><path/><path d="M857 279V60" stroke="#000" stroke-width="2" fill="none"/><path/><path d="M857 399v204" stroke="#000" stroke-width="2" fill="none"/><path/><path d="M138 383h120v80H138z" fill="none"/><path d="M138 423h27l6-12 9 24 9-24 9 24 9-24 9 24 9-24 9 24 6-12h18" stroke="#000" stroke-width="2" fill="none"/><use xlink:href="#v" transform="matrix(1,0,0,1,138,451.00000000000006) translate(48.525 18.6)"/><path d="M20 260h202v73H20z" stroke="#000" stroke-width="2" fill="#fff"/><g><use xlink:href="#w" transform="matrix(1,0,0,1,25,265) translate(29.075000000000003 14.4)"/><use xlink:href="#x" transform="matrix(1,0,0,1,25,265) translate(47.025000000000006 14.4)"/><use xlink:href="#y" transform="matrix(1,0,0,1,25,265) translate(69.025 14.4)"/><use xlink:href="#z" transform="matrix(1,0,0,1,25,265) translate(119.025 14.4)"/></g><path d="M77 295h80v38H77z" stroke="#000" stroke-opacity="0" stroke-width="2" fill="#fff" fill-opacity="0"/><g><use xlink:href="#A" transform="matrix(1,0,0,1,82,300) translate(0 10.666666666666668)"/><use xlink:href="#B" transform="matrix(1,0,0,1,82,300) translate(33.25925925925926 10.666666666666668)"/><use xlink:href="#C" transform="matrix(1,0,0,1,82,300) translate(0 26.666666666666668)"/><use xlink:href="#D" transform="matrix(1,0,0,1,82,300) translate(36.48148148148149 26.666666666666668)"/></g><path d="M160 295h80v38h-80z" stroke="#000" stroke-opacity="0" stroke-width="2" fill="#fff" fill-opacity="0"/><g><use xlink:href="#A" transform="matrix(1,0,0,1,165,300) translate(0 10.666666666666668)"/><use xlink:href="#E" transform="matrix(1,0,0,1,165,300) translate(33.25925925925926 10.666666666666668)"/><use xlink:href="#C" transform="matrix(1,0,0,1,165,300) translate(0 26.666666666666668)"/><use xlink:href="#F" transform="matrix(1,0,0,1,165,300) translate(36.48148148148149 26.666666666666668)"/></g><path d="M20 311h80v22H20z" stroke="#000" stroke-opacity="0" stroke-width="2" fill="#fff" fill-opacity="0"/><g><use xlink:href="#G" transform="matrix(1,0,0,1,25,316) translate(0 10.666666666666668)"/></g><path d="M38.67 333v135h56v135" stroke="#000" stroke-width="2" fill="none"/><path/><path d="M110 333v90h28" stroke="#000" stroke-width="2" fill="none"/><path/><path/><path d="M181.33 334v6H346v10h30v-10h60v86h26" stroke="#000" stroke-width="2" fill="none"/><path d="M181.9 333.17l-1.12 1.66-2.5-1.66.1-.17h3.26z"/><path/><path d="M62 170h240v60H62z" stroke="#000" stroke-opacity="0" stroke-width="2" fill="#fff" fill-opacity="0"/><g><use xlink:href="#H" transform="matrix(1,0,0,1,67,175) translate(103.525 28.6)"/></g><path d="M475 170h47v60h-47z" stroke="#000" stroke-opacity="0" stroke-width="2" fill="#fff" fill-opacity="0"/><g><use xlink:href="#I" transform="matrix(1,0,0,1,480.00000000000006,175) translate(7.024999999999999 28.6)"/></g><path d="M260 359h47v40h-47z" stroke="#000" stroke-opacity="0" stroke-width="2" fill="#fff" fill-opacity="0"/><g><use xlink:href="#J" transform="matrix(1,0,0,1,265,364) translate(6.5 18.6)"/></g><path d="M591 352.4h47v53.2h-47z" stroke="#000" stroke-opacity="0" stroke-width="2" fill="#fff" fill-opacity="0"/><g><use xlink:href="#K" transform="matrix(1,0,0,1,596,357.4) translate(6.5 25.6)"/></g><path d="M780 316h47v53.2h-47z" stroke="#000" stroke-opacity="0" stroke-width="2" fill="#fff" fill-opacity="0"/><g><use xlink:href="#L" transform="matrix(1,0,0,1,785,321) translate(7.024999999999999 25.6)"/></g><defs><path d="M185-189c-5-48-123-54-124 2 14 75 158 14 163 119 3 78-121 87-175 55-17-10-28-26-33-46l33-7c5 56 141 63 141-1 0-78-155-14-162-118-5-82 145-84 179-34 5 7 8 16 11 25" id="M"/><path d="M84 4C-5 8 30-112 23-190h32v120c0 31 7 50 39 49 72-2 45-101 50-169h31l1 190h-30c-1-10 1-25-2-33-11 22-28 36-60 37" id="N"/><path d="M115-194c55 1 70 41 70 98S169 2 115 4C84 4 66-9 55-30l1 105H24l-1-265h31l2 30c10-21 28-34 59-34zm-8 174c40 0 45-34 45-75s-6-73-45-74c-42 0-51 32-51 76 0 43 10 73 51 73" id="O"/><path d="M24 0v-261h32V0H24" id="P"/><path d="M179-190L93 31C79 59 56 82 12 73V49c39 6 53-20 64-50L1-190h34L92-34l54-156h33" id="Q"/><g id="a"><use transform="matrix(0.05,0,0,0.05,0,0)" xlink:href="#M"/><use transform="matrix(0.05,0,0,0.05,12,0)" xlink:href="#N"/><use transform="matrix(0.05,0,0,0.05,22,0)" xlink:href="#O"/><use transform="matrix(0.05,0,0,0.05,32,0)" xlink:href="#O"/><use transform="matrix(0.05,0,0,0.05,42,0)" xlink:href="#P"/><use transform="matrix(0.05,0,0,0.05,45.95,0)" xlink:href="#Q"/></g><path d="M118-107v75H92v-75H18v-26h74v-75h26v75h74v26h-74" id="R"/><path d="M54-142c48-35 137-8 131 61C196 18 31 33 14-55l32-4c7 23 22 37 52 37 35-1 51-22 54-58 4-55-73-65-99-34H22l8-134h141v27H59" id="S"/><path d="M137 0h-34L2-248h35l83 218 83-218h36" id="T"/><g id="b"><use transform="matrix(0.05,0,0,0.05,0,0)" xlink:href="#R"/><use transform="matrix(0.05,0,0,0.05,10.5,0)" xlink:href="#S"/><use transform="matrix(0.05,0,0,0.05,20.5,0)" xlink:href="#T"/></g><path d="M30-248c118-7 216 8 213 122C240-48 200 0 122 0H30v-248zM63-27c89 8 146-16 146-99s-60-101-146-95v194" id="U"/><path d="M212-179c-10-28-35-45-73-45-59 0-87 40-87 99 0 60 29 101 89 101 43 0 62-24 78-52l27 14C228-24 195 4 139 4 59 4 22-46 18-125c-6-104 99-153 187-111 19 9 31 26 39 46" id="V"/><g id="c"><use transform="matrix(0.05,0,0,0.05,0,0)" xlink:href="#U"/><use transform="matrix(0.05,0,0,0.05,12.950000000000001,0)" xlink:href="#V"/></g><path d="M101-251c68 0 85 55 85 127S166 4 100 4C33 4 14-52 14-124c0-73 17-127 87-127zm-1 229c47 0 54-49 54-102s-4-102-53-102c-51 0-55 48-55 102 0 53 5 102 54 102" id="W"/><g id="d"><use transform="matrix(0.05,0,0,0.05,0,0)" xlink:href="#W"/><use transform="matrix(0.05,0,0,0.05,10,0)" xlink:href="#T"/></g><path d="M233-177c-1 41-23 64-60 70L243 0h-38l-65-103H63V0H30v-248c88 3 205-21 203 71zM63-129c60-2 137 13 137-47 0-61-80-42-137-45v92" id="X"/><path d="M101-251c82-7 93 87 43 132L82-64C71-53 59-42 53-27h129V0H18c2-99 128-94 128-182 0-28-16-43-45-43s-46 15-49 41l-32-3c6-41 34-60 81-64" id="Y"/><g id="e"><use transform="matrix(0.05,0,0,0.05,0,0)" xlink:href="#X"/><use transform="matrix(0.05,0,0,0.05,12.950000000000001,0)" xlink:href="#Y"/></g><path d="M27 0v-27h64v-190l-56 39v-29l58-41h29v221h61V0H27" id="Z"/><path d="M33-154v-36h34v36H33zM33 0v-36h34V0H33" id="aa"/><g id="f"><use transform="matrix(0.05,0,0,0.05,0,0)" xlink:href="#V"/><use transform="matrix(0.05,0,0,0.05,12.950000000000001,0)" xlink:href="#Z"/><use transform="matrix(0.05,0,0,0.05,22.950000000000003,0)" xlink:href="#aa"/></g><path d="M155-56V0h-30v-56H8v-25l114-167h33v167h35v25h-35zm-30-156c-27 46-58 90-88 131h88v-131" id="ab"/><path d="M64 0c3-98 48-159 88-221H18v-27h164v26C143-157 98-101 97 0H64" id="ac"/><path d="M63-220v92h138v28H63V0H30v-248h175v28H63" id="ad"/><g id="h"><use transform="matrix(0.05,0,0,0.05,0,0)" xlink:href="#ab"/><use transform="matrix(0.05,0,0,0.05,10,0)" xlink:href="#ac"/><use transform="matrix(0.05,0,0,0.05,20,0)" xlink:href="#W"/><use transform="matrix(0.05,0,0,0.05,30,0)" xlink:href="#W"/><use transform="matrix(0.05,0,0,0.05,40,0)" xlink:href="#N"/><use transform="matrix(0.05,0,0,0.05,50,0)" xlink:href="#ad"/></g><path d="M68-38c1 34 0 65-14 84H32c9-13 17-26 17-46H33v-38h35" id="ae"/><g id="i"><use transform="matrix(0.05,0,0,0.05,0,0)" xlink:href="#U"/><use transform="matrix(0.05,0,0,0.05,12.950000000000001,0)" xlink:href="#Z"/><use transform="matrix(0.05,0,0,0.05,22.950000000000003,0)" xlink:href="#ae"/></g><g id="j"><use transform="matrix(0.05,0,0,0.05,0,0)" xlink:href="#U"/><use transform="matrix(0.05,0,0,0.05,12.950000000000001,0)" xlink:href="#Y"/><use transform="matrix(0.05,0,0,0.05,22.950000000000003,0)" xlink:href="#aa"/></g><path d="M190 0L58-211 59 0H30v-248h39L202-35l-2-213h31V0h-41" id="af"/><path d="M126-127c33 6 58 20 58 59 0 88-139 92-164 29-3-8-5-16-6-25l32-3c6 27 21 44 54 44 32 0 52-15 52-46 0-38-36-46-79-43v-28c39 1 72-4 72-42 0-27-17-43-46-43-28 0-47 15-49 41l-32-3c6-42 35-63 81-64 48-1 79 21 79 65 0 36-21 52-52 59" id="ag"/><path d="M99-251c64 0 84 50 84 122C183-37 130 33 47-8c-14-7-20-23-25-40l30-5c6 39 69 39 84 7 9-19 16-44 16-74-10 22-31 35-62 35-49 0-73-33-73-83 0-54 28-83 82-83zm-1 141c31-1 51-18 51-49 0-36-14-67-51-67-34 0-49 23-49 58 0 34 15 58 49 58" id="ah"/><g id="l"><use transform="matrix(0.05,0,0,0.05,0,0)" xlink:href="#Z"/><use transform="matrix(0.05,0,0,0.05,10,0)" xlink:href="#af"/><use transform="matrix(0.05,0,0,0.05,22.950000000000003,0)" xlink:href="#S"/><use transform="matrix(0.05,0,0,0.05,32.95,0)" xlink:href="#ag"/><use transform="matrix(0.05,0,0,0.05,42.95,0)" xlink:href="#ah"/><use transform="matrix(0.05,0,0,0.05,52.95,0)" xlink:href="#Z"/></g><path d="M140-251c81 0 123 46 123 126C263-53 228-8 163 1c7 30 30 48 69 40v23c-55 16-95-15-103-61C56-3 17-48 17-125c0-80 42-126 123-126zm0 227c63 0 89-41 89-101s-29-99-89-99c-61 0-89 39-89 99S79-25 140-24" id="ai"/><g id="m"><use transform="matrix(0.05,0,0,0.05,0,0)" xlink:href="#ai"/><use transform="matrix(0.05,0,0,0.05,14,0)" xlink:href="#Z"/><use transform="matrix(0.05,0,0,0.05,24,0)" xlink:href="#ae"/></g><g id="n"><use transform="matrix(0.05,0,0,0.05,0,0)" xlink:href="#ai"/><use transform="matrix(0.05,0,0,0.05,14,0)" xlink:href="#Y"/><use transform="matrix(0.05,0,0,0.05,24,0)" xlink:href="#aa"/></g><path d="M194 0L95-120 63-95V0H30v-248h33v124l119-124h40L117-140 236 0h-42" id="aj"/><path d="M137-103V0h-34v-103L8-248h37l75 118 75-118h37" id="ak"/><path d="M127-220V0H93v-220H8v-28h204v28h-85" id="al"/><path d="M232-93c-1 65-40 97-104 97C67 4 28-28 28-90v-158h33c8 89-33 224 67 224 102 0 64-133 71-224h33v155" id="am"/><g id="o"><use transform="matrix(0.05,0,0,0.05,0,0)" xlink:href="#aj"/><use transform="matrix(0.05,0,0,0.05,12,0)" xlink:href="#M"/><use transform="matrix(0.05,0,0,0.05,24,0)" xlink:href="#V"/><use transform="matrix(0.05,0,0,0.05,36.95,0)" xlink:href="#Y"/><use transform="matrix(0.05,0,0,0.05,46.95,0)" xlink:href="#ag"/><use transform="matrix(0.05,0,0,0.05,56.95,0)" xlink:href="#ag"/><use transform="matrix(0.05,0,0,0.05,66.95,0)" xlink:href="#ab"/><use transform="matrix(0.05,0,0,0.05,76.95,0)" xlink:href="#ak"/><use transform="matrix(0.05,0,0,0.05,88.95,0)" xlink:href="#al"/><use transform="matrix(0.05,0,0,0.05,99.9,0)" xlink:href="#am"/></g><g id="p"><use transform="matrix(0.05,0,0,0.05,0,0)" xlink:href="#X"/><use transform="matrix(0.05,0,0,0.05,12.950000000000001,0)" xlink:href="#Z"/><use transform="matrix(0.05,0,0,0.05,22.950000000000003,0)" xlink:href="#ae"/></g><g id="q"><use transform="matrix(0.05,0,0,0.05,0,0)" xlink:href="#X"/><use transform="matrix(0.05,0,0,0.05,12.950000000000001,0)" xlink:href="#Y"/><use transform="matrix(0.05,0,0,0.05,22.950000000000003,0)" xlink:href="#aa"/></g><path d="M20-141c0-71 41-110 114-110s115 39 115 110c0 61-35 92-75 116l80-2V0H150v-39c35-20 64-46 64-100s-27-85-79-85c-54 0-81 31-81 85 0 52 29 80 65 100V0H15v-27l80 2C55-49 20-80 20-141" id="an"/><g id="r"><use transform="matrix(0.05,0,0,0.05,0,0)" xlink:href="#ag"/><use transform="matrix(0.05,0,0,0.05,10,0)" xlink:href="#ag"/><use transform="matrix(0.05,0,0,0.05,20,0)" xlink:href="#W"/><use transform="matrix(0.05,0,0,0.05,30,0)" xlink:href="#an"/></g><path d="M160-131c35 5 61 23 61 61C221 17 115-2 30 0v-248c76 3 177-17 177 60 0 33-19 50-47 57zm-97-11c50-1 110 9 110-42 0-47-63-36-110-37v79zm0 115c55-2 124 14 124-45 0-56-70-42-124-44v89" id="ao"/><use transform="matrix(0.05,0,0,0.05,0,0)" xlink:href="#ao" id="s"/><use transform="matrix(0.05,0,0,0.05,0,0)" xlink:href="#V" id="t"/><path d="M30 0v-248h187v28H63v79h144v27H63v87h162V0H30" id="ap"/><use transform="matrix(0.05,0,0,0.05,0,0)" xlink:href="#ap" id="u"/><g id="v"><use transform="matrix(0.05,0,0,0.05,0,0)" xlink:href="#X"/><use transform="matrix(0.05,0,0,0.05,12.950000000000001,0)" xlink:href="#Z"/></g><use transform="matrix(0.05,0,0,0.05,0,0)" xlink:href="#X" id="w"/><path d="M30-248c87 1 191-15 191 75 0 78-77 80-158 76V0H30v-248zm33 125c57 0 124 11 124-50 0-59-68-47-124-48v98" id="aq"/><path d="M33 0v-248h34V0H33" id="ar"/><g id="x"><use transform="matrix(0.05,0,0,0.05,0,0)" xlink:href="#aq"/><use transform="matrix(0.05,0,0,0.05,12,0)" xlink:href="#ar"/></g><path d="M143 4C61 4 22-44 18-125c-5-107 100-154 193-111 17 8 29 25 37 43l-32 9c-13-25-37-40-76-40-61 0-88 39-88 99 0 61 29 100 91 101 35 0 62-11 79-27v-45h-74v-28h105v86C228-13 192 4 143 4" id="as"/><path d="M140-251c81 0 123 46 123 126C263-46 219 4 140 4 59 4 17-45 17-125s42-126 123-126zm0 227c63 0 89-41 89-101s-29-99-89-99c-61 0-89 39-89 99S79-25 140-24" id="at"/><g id="y"><use transform="matrix(0.05,0,0,0.05,0,0)" xlink:href="#as"/><use transform="matrix(0.05,0,0,0.05,14,0)" xlink:href="#aq"/><use transform="matrix(0.05,0,0,0.05,26,0)" xlink:href="#ar"/><use transform="matrix(0.05,0,0,0.05,31,0)" xlink:href="#at"/></g><path d="M266 0h-40l-56-210L115 0H75L2-248h35L96-30l15-64 43-154h32l59 218 59-218h35" id="au"/><path d="M240 0l2-218c-23 76-54 145-80 218h-23L58-218 59 0H30v-248h44l77 211c21-75 51-140 76-211h43V0h-30" id="av"/><g id="z"><use transform="matrix(0.05,0,0,0.05,0,0)" xlink:href="#aq"/><use transform="matrix(0.05,0,0,0.05,12,0)" xlink:href="#au"/><use transform="matrix(0.05,0,0,0.05,28.950000000000003,0)" xlink:href="#av"/></g><g id="A"><use transform="matrix(0.03703703703703704,0,0,0.03703703703703704,0,0)" xlink:href="#ao"/><use transform="matrix(0.03703703703703704,0,0,0.03703703703703704,8.88888888888889,0)" xlink:href="#V"/><use transform="matrix(0.03703703703703704,0,0,0.03703703703703704,18.48148148148148,0)" xlink:href="#av"/></g><g id="B"><use transform="matrix(0.03703703703703704,0,0,0.03703703703703704,0,0)" xlink:href="#Z"/><use transform="matrix(0.03703703703703704,0,0,0.03703703703703704,7.407407407407408,0)" xlink:href="#ac"/></g><path d="M114-163C36-179 61-72 57 0H25l-1-190h30c1 12-1 29 2 39 6-27 23-49 58-41v29" id="aw"/><path d="M141-36C126-15 110 5 73 4 37 3 15-17 15-53c-1-64 63-63 125-63 3-35-9-54-41-54-24 1-41 7-42 31l-33-3c5-37 33-52 76-52 45 0 72 20 72 64v82c-1 20 7 32 28 27v20c-31 9-61-2-59-35zM48-53c0 20 12 33 32 33 41-3 63-29 60-74-43 2-92-5-92 41" id="ax"/><path d="M96-169c-40 0-48 33-48 73s9 75 48 75c24 0 41-14 43-38l32 2c-6 37-31 61-74 61-59 0-76-41-82-99-10-93 101-131 147-64 4 7 5 14 7 22l-32 3c-4-21-16-35-41-35" id="ay"/><path d="M143 0L79-87 56-68V0H24v-261h32v163l83-92h37l-77 82L181 0h-38" id="az"/><g id="C"><use transform="matrix(0.03703703703703704,0,0,0.03703703703703704,0,0)" xlink:href="#al"/><use transform="matrix(0.03703703703703704,0,0,0.03703703703703704,7.629629629629631,0)" xlink:href="#aw"/><use transform="matrix(0.03703703703703704,0,0,0.03703703703703704,12.037037037037038,0)" xlink:href="#ax"/><use transform="matrix(0.03703703703703704,0,0,0.03703703703703704,19.444444444444446,0)" xlink:href="#ay"/><use transform="matrix(0.03703703703703704,0,0,0.03703703703703704,26.111111111111114,0)" xlink:href="#az"/></g><use transform="matrix(0.03703703703703704,0,0,0.03703703703703704,0,0)" xlink:href="#Z" id="D"/><g id="E"><use transform="matrix(0.03703703703703704,0,0,0.03703703703703704,0,0)" xlink:href="#Y"/><use transform="matrix(0.03703703703703704,0,0,0.03703703703703704,7.407407407407408,0)" xlink:href="#ac"/></g><use transform="matrix(0.03703703703703704,0,0,0.03703703703703704,0,0)" xlink:href="#Y" id="F"/><g id="G"><use transform="matrix(0.03703703703703704,0,0,0.03703703703703704,0,0)" xlink:href="#as"/><use transform="matrix(0.03703703703703704,0,0,0.03703703703703704,10.370370370370372,0)" xlink:href="#af"/><use transform="matrix(0.03703703703703704,0,0,0.03703703703703704,19.962962962962965,0)" xlink:href="#U"/></g><g id="H"><use transform="matrix(0.05,0,0,0.05,0,0)" xlink:href="#U"/><use transform="matrix(0.05,0,0,0.05,12.950000000000001,0)" xlink:href="#Z"/></g><g id="I"><use transform="matrix(0.05,0,0,0.05,0,0)" xlink:href="#U"/><use transform="matrix(0.05,0,0,0.05,12.950000000000001,0)" xlink:href="#Y"/></g><g id="J"><use transform="matrix(0.05,0,0,0.05,0,0)" xlink:href="#ai"/><use transform="matrix(0.05,0,0,0.05,14,0)" xlink:href="#Z"/></g><g id="K"><use transform="matrix(0.05,0,0,0.05,0,0)" xlink:href="#ai"/><use transform="matrix(0.05,0,0,0.05,14,0)" xlink:href="#Y"/></g><g id="L"><use transform="matrix(0.05,0,0,0.05,0,0)" xlink:href="#V"/><use transform="matrix(0.05,0,0,0.05,12.950000000000001,0)" xlink:href="#Z"/></g></defs></g></svg>